# File created by Blade
# Date/Time:  Wed Jan 21 17:21:31 2015
# Frame Rate: 120.000 fps
#------------------------------------------------------
:FULLY-SPECIFIED
:DEGREES
1018
root 20.877516 18.217298 -16.280361 -148.121716 20.592845 -193.649127
Spine 43.531186 23.057870 -15.840351
Head -21.815414 0.084364 6.614630
LeftShoulder 24.610013 -42.650175 -7.037395
LeftArm 17.254191 36.539729 -58.235862
LeftForeArm -21.136186 -0.000000 14.575389
LeftHand -1.511206 -0.000000 -2.358527
LeftHandThumb1 -26.253704 0.000000 33.147579
RightShoulder 15.775184 7.754317 -4.870552
RightArm 43.907264 11.511050 64.764531
RightForeArm -9.586968 -0.000000 18.177569
RightHand -11.176204 -0.000000 -17.761531
RightHandThumb1 -24.326973 -0.000000 -32.862282
LeftUpLeg -124.677963 -0.174808 -22.239182
LeftLeg 88.400074 -0.000000 -0.000000
LeftFoot -15.490240 30.521628 -3.585653
LeftToeBase 25.563009 -0.000000 -0.000000
RightUpLeg -15.256264 5.850166 -5.200865
RightLeg 102.269060 -0.000000 -0.000000
RightFoot 43.882321 -17.973512 -4.246665
RightToeBase 35.867026 -0.000000 -0.000000
1019
root 20.883204 18.234870 -16.179769 -148.207874 20.588068 -193.524008
Spine 43.736613 22.946597 -15.816804
Head -21.576755 0.115131 6.643112
LeftShoulder 24.846659 -42.751019 -7.124800
LeftArm 17.636455 36.365320 -58.198293
LeftForeArm -21.447594 -0.000000 14.339787
LeftHand -1.817498 -0.000000 -2.391457
LeftHandThumb1 -26.253704 0.000000 33.147579
RightShoulder 15.904043 7.851520 -4.953607
RightArm 44.105969 11.414949 64.447471
RightForeArm -9.182969 -0.000000 18.281674
RightHand -11.261049 0.000000 -17.580382
RightHandThumb1 -24.326973 -0.000000 -32.862282
LeftUpLeg -124.541882 -0.056505 -21.992094
LeftLeg 88.036381 -0.000000 -0.000000
LeftFoot -15.105958 30.584477 -3.421077
LeftToeBase 25.553979 -0.000000 -0.000000
RightUpLeg -15.430726 6.094598 -5.057619
RightLeg 101.963444 -0.000000 -0.000000
RightFoot 43.862935 -17.929337 -4.272963
RightToeBase 36.171252 -0.000000 -0.000000
1020
root 20.883954 18.256549 -16.065805 -148.183620 20.483294 -193.364582
Spine 43.862214 22.675910 -15.707642
Head -21.374706 0.000479 6.587286
LeftShoulder 25.004629 -42.915192 -7.285980
LeftArm 18.024239 36.320607 -58.173253
LeftForeArm -21.613044 0.000000 13.917911
LeftHand -1.727817 0.000000 -2.296629
LeftHandThumb1 -26.253704 0.000000 33.147579
RightShoulder 16.028490 7.894247 -5.109870
RightArm 44.452477 11.488053 64.398572
RightForeArm -9.346462 -0.000000 18.257500
RightHand -11.214456 -0.000000 -17.516588
RightHandThumb1 -24.326973 -0.000000 -32.862282
LeftUpLeg -124.412263 -0.034412 -21.678787
LeftLeg 87.544808 -0.000000 -0.000000
LeftFoot -14.704541 30.662038 -2.961105
LeftToeBase 25.684356 -0.000000 -0.000000
RightUpLeg -15.731767 6.259319 -4.845017
RightLeg 101.709965 -0.000000 -0.000000
RightFoot 43.826171 -17.710974 -4.349033
RightToeBase 35.875723 -0.000000 -0.000000
1021
root 20.892747 18.271014 -15.960340 -148.233723 20.496438 -193.208863
Spine 44.020576 22.632411 -15.683304
Head -21.218324 -0.039776 6.673591
LeftShoulder 25.130509 -42.971504 -7.290989
LeftArm 18.597568 36.190534 -58.105367
LeftForeArm -21.639523 -0.000000 13.420464
LeftHand -1.700147 -0.000000 -2.375127
LeftHandThumb1 -26.253704 0.000000 33.147579
RightShoulder 16.131466 8.044252 -5.141082
RightArm 44.626520 11.484086 64.245188
RightForeArm -9.373553 -0.000000 18.274161
RightHand -11.155043 -0.000000 -17.482821
RightHandThumb1 -24.326973 -0.000000 -32.862282
LeftUpLeg -124.329247 0.106448 -21.416519
LeftLeg 87.192130 -0.000000 -0.000000
LeftFoot -14.361683 30.715555 -2.834923
LeftToeBase 25.615812 -0.000000 -0.000000
RightUpLeg -15.954523 6.542977 -4.682880
RightLeg 101.454947 -0.000000 -0.000000
RightFoot 43.844278 -17.620835 -4.293301
RightToeBase 35.486012 -0.000000 -0.000000
1022
root 20.889010 18.292829 -15.854651 -148.338672 20.490686 -193.175569
Spine 44.241158 22.495261 -15.721967
Head -21.118063 -0.108061 6.738044
LeftShoulder 25.304475 -43.112092 -7.337170
LeftArm 19.040530 36.022206 -58.117921
LeftForeArm -21.679659 -0.000000 12.971991
LeftHand -1.744685 -0.000000 -2.392330
LeftHandThumb1 -26.253704 0.000000 33.147579
RightShoulder 16.214963 8.096267 -5.191756
RightArm 44.958612 11.565539 64.108324
RightForeArm -9.355200 -0.000000 18.282349
RightHand -11.152184 -0.000000 -17.287396
RightHandThumb1 -24.326973 -0.000000 -32.862282
LeftUpLeg -124.143368 0.149544 -21.224708
LeftLeg 86.771123 -0.000000 -0.000000
LeftFoot -14.002608 30.829606 -2.703546
LeftToeBase 25.464392 -0.000000 -0.000000
RightUpLeg -16.164079 6.759636 -4.637153
RightLeg 101.225989 -0.000000 -0.000000
RightFoot 43.832544 -17.535178 -4.298647
RightToeBase 35.267284 -0.000000 -0.000000
1023
root 20.889878 18.312552 -15.746406 -148.436252 20.490198 -193.085353
Spine 44.460091 22.395175 -15.729027
Head -21.065080 -0.209609 6.855843
LeftShoulder 25.465223 -43.277879 -7.368613
LeftArm 19.422800 35.832424 -58.179702
LeftForeArm -21.770440 -0.000000 12.540792
LeftHand -1.777323 -0.000000 -2.494602
LeftHandThumb1 -26.253704 0.000000 33.147579
RightShoulder 16.328910 8.202506 -5.213833
RightArm 45.210836 11.615045 63.940000
RightForeArm -9.442701 0.000000 18.285228
RightHand -11.125362 0.000000 -17.274814
RightHandThumb1 -24.326973 -0.000000 -32.862282
LeftUpLeg -123.987355 0.243656 -21.002558
LeftLeg 86.373418 -0.000000 -0.000000
LeftFoot -13.602064 30.885538 -2.552982
LeftToeBase 25.367286 -0.000000 -0.000000
RightUpLeg -16.369245 6.990716 -4.527596
RightLeg 101.008830 -0.000000 -0.000000
RightFoot 43.807783 -17.405128 -4.307747
RightToeBase 35.456648 -0.000000 -0.000000
1024
root 20.892589 18.332303 -15.633012 -148.515338 20.499848 -192.993600
Spine 44.646909 22.317872 -15.754945
Head -21.004351 -0.317476 6.961952
LeftShoulder 25.651499 -43.431447 -7.422859
LeftArm 19.825579 35.681494 -58.190892
LeftForeArm -21.892886 -0.000000 12.120092
LeftHand -1.932909 -0.000000 -2.865844
LeftHandThumb1 -26.253704 0.000000 33.147579
RightShoulder 16.428071 8.238038 -5.263844
RightArm 45.534839 11.780204 63.883131
RightForeArm -9.659247 -0.000000 18.309145
RightHand -11.072428 0.000000 -17.103023
RightHandThumb1 -24.326973 -0.000000 -32.862282
LeftUpLeg -123.851045 0.354004 -20.808253
LeftLeg 85.959435 -0.000000 -0.000000
LeftFoot -13.233838 30.921687 -2.483635
LeftToeBase 25.246527 -0.000000 -0.000000
RightUpLeg -16.610987 7.206618 -4.412617
RightLeg 100.835704 -0.000000 -0.000000
RightFoot 43.741382 -17.252836 -4.450833
RightToeBase 35.455478 -0.000000 -0.000000
1025
root 20.890239 18.350585 -15.515719 -148.580182 20.505657 -192.885083
Spine 44.815507 22.285096 -15.732531
Head -20.938312 -0.421292 7.097284
LeftShoulder 25.808088 -43.512323 -7.392508
LeftArm 20.332169 35.404910 -58.259531
LeftForeArm -22.324292 -0.000000 11.572853
LeftHand -2.017745 0.000000 -2.555857
LeftHandThumb1 -26.253704 0.000000 33.147579
RightShoulder 16.533399 8.298505 -5.268142
RightArm 45.659404 11.753473 63.439043
RightForeArm -9.480201 -0.000000 18.450787
RightHand -11.099055 -0.000000 -16.975398
RightHandThumb1 -24.326973 -0.000000 -32.862282
LeftUpLeg -123.718472 0.440945 -20.584134
LeftLeg 85.509887 -0.000000 -0.000000
LeftFoot -12.828743 31.059418 -2.394083
LeftToeBase 25.152992 -0.000000 -0.000000
RightUpLeg -16.882997 7.446146 -4.302530
RightLeg 100.680581 -0.000000 -0.000000
RightFoot 43.692636 -17.333950 -4.230485
RightToeBase 35.579567 -0.000000 -0.000000
